<svg xmlns="http://www.w3.org/2000/svg" viewBox="0 0 48 48" width="20px" height="20px">
  <path fill="#FFC107" d="M43.611,20.083H42V20H24v8h11.303c-1.649,4.657-6.08,8-11.303,8c-6.627,0-12-5.373-12-12c0-6.627,5.373-12,12-12c3.059,0,5.842,1.154,8,3.029l5.479-5.479C34.464,6.536,29.849,4,24,4C12.955,4,4,12.955,4,24c0,11.045,8.955,20,20,20c11.045,0,20-8.955,20-20C44,22.659,43.862,21.35,43.611,20.083z"/>
  <path fill="#FF3D00" d="M6.306,14.691l6.571,4.819C14.655,15.108,18.961,12,24,12c3.059,0,5.842,1.154,8,3.029l5.479-5.479C34.464,6.536,29.849,4,24,4C12.955,4,4,12.955,4,24c0,2.109,0.395,4.14,1.115,6.006l7.461-2.903C12.333,26.33,12,25.132,12,24C12,21.659,12.721,19.497,14.041,17.756L6.306,14.691z"/>
  <path fill="#4CAF50" d="M24,44c5.166,0,9.86-1.977,13.409-5.192l-6.19-5.238C29.211,35.091,26.715,36,24,36c-5.202,0-9.619-3.317-11.283-7.946l-6.571,4.819C9.22,39.317,16.297,44,24,44z"/>
  <path fill="#1976D2" d="M43.611,20.083H42V20H24v8h11.303c-1.649,4.657-6.08,8-11.303,8c-6.627,0-12-5.373-12-12c0-6.627,5.373-12,12-12c3.059,0,5.842,1.154,8,3.029l5.479-5.479C34.464,6.536,29.849,4,24,4C12.955,4,4,12.955,4,24c0,11.045,8.955,20,20,20c11.045,0,20-8.955,20-20C44,22.659,43.862,21.35,43.611,20.083z"/>
</svg>
